<svg width="24" height="24" viewBox="0 0 24 24" fill="none" xmlns="http://www.w3.org/2000/svg">
<path d="M22 10C22 17 12 23 12 23C12 23 2 17 2 10C2 7.61305 3.05357 5.32387 4.92893 3.63604C6.8043 1.94821 9.34784 1 12 1C14.6522 1 17.1957 1.94821 19.0711 3.63604C20.9464 5.32387 22 7.61305 22 10Z" stroke="#16C24A" stroke-width="2" stroke-linecap="round" stroke-linejoin="round"/>
<path d="M12 13C13.6569 13 15 11.6569 15 10C15 8.34315 13.6569 7 12 7C10.3431 7 9 8.34315 9 10C9 11.6569 10.3431 13 12 13Z" stroke="#16C24A" stroke-width="2" stroke-linecap="round" stroke-linejoin="round"/>
</svg>
